<svg width="64" height="64" viewBox="0 0 64 64" fill="none" xmlns="http://www.w3.org/2000/svg">
<rect width="64" height="64" fill="white"/>
<path fill-rule="evenodd" clip-rule="evenodd" d="M8.56899 2.88161C12.1618 0.592724 16.8131 0.104248 24.7459 1.1542e-06V5.16193C21.9774 5.19875 19.7136 5.28235 17.778 5.47212C14.4591 5.7975 12.6594 6.39544 11.3421 7.23459C9.68949 8.28746 8.28746 9.68949 7.23459 11.3421C6.39544 12.6594 5.7975 14.4591 5.47212 17.778C5.28235 19.7137 5.19875 21.9774 5.16193 24.7459H0C0.104245 16.8131 0.592718 12.1618 2.88161 8.56899C4.33941 6.28069 6.28069 4.33942 8.56899 2.88161ZM4.98603e-07 39.1975H5.16193C5.19875 41.966 5.28235 44.2298 5.47212 46.1654C5.7975 49.4844 6.39544 51.2841 7.23459 52.6013C8.28746 54.2539 9.68949 55.656 11.3421 56.7088C12.6594 57.548 14.4591 58.1459 17.778 58.4713C19.7136 58.6611 21.9774 58.7447 24.7459 58.7815V63.9434C16.8131 63.8392 12.1618 63.3507 8.56899 61.0618C6.28069 59.604 4.33941 57.6627 2.88161 55.3744C0.592721 51.7816 0.104247 47.1303 4.98603e-07 39.1975ZM39.1975 63.9434C47.1303 63.8392 51.7816 63.3507 55.3744 61.0618C57.6627 59.604 59.604 57.6627 61.0618 55.3744C63.3507 51.7816 63.8392 47.1303 63.9434 39.1975H58.7815C58.7447 41.966 58.6611 44.2298 58.4713 46.1654C58.1459 49.4844 57.548 51.2841 56.7088 52.6013C55.656 54.2539 54.2539 55.656 52.6013 56.7088C51.2841 57.548 49.4844 58.1459 46.1654 58.4713C44.2298 58.6611 41.966 58.7447 39.1975 58.7815V63.9434ZM58.7815 24.7459C58.7447 21.9774 58.6611 19.7137 58.4713 17.778C58.1459 14.4591 57.548 12.6594 56.7088 11.3421C55.656 9.68949 54.2539 8.28746 52.6013 7.23459C51.2841 6.39544 49.4844 5.7975 46.1654 5.47212C44.2298 5.28235 41.966 5.19875 39.1975 5.16193V0C47.1303 0.104244 51.7816 0.592715 55.3744 2.88161C57.6627 4.33942 59.604 6.28069 61.0618 8.56899C63.3507 12.1618 63.8392 16.8131 63.9434 24.7459H58.7815Z" fill="url(#paint0_linear_15_11)"/>
<path d="M12.4697 34.6248C12.4697 34.9586 12.6699 35.2598 12.9777 35.389L25.1078 40.4823C25.654 40.7116 26.2575 40.3105 26.2575 39.7181V37.2169C26.2575 36.8712 26.0428 36.5618 25.719 36.4407L17.3865 33.3237C17.3329 33.3036 17.2973 33.2524 17.2973 33.1952V33.1952C17.2973 33.1379 17.3329 33.0866 17.3866 33.0666L25.7183 29.9588C26.0425 29.8379 26.2575 29.5283 26.2575 29.1823V26.6721C26.2575 26.0798 25.654 25.6787 25.1078 25.908L12.9777 31.0013C12.6699 31.1305 12.4697 31.4317 12.4697 31.7655V34.6248Z" fill="#160101"/>
<path d="M38.7953 21.6895C38.937 21.1629 38.5403 20.6453 37.995 20.6453H35.7409C35.3661 20.6453 35.038 20.8968 34.9406 21.2586L29.1023 42.9488C28.9606 43.4754 29.3573 43.993 29.9026 43.993H32.1567C32.5314 43.993 32.8596 43.7415 32.957 43.3796L38.7953 21.6895Z" fill="#160101"/>
<path d="M54.9199 35.389C55.2276 35.2598 55.4278 34.9586 55.4278 34.6248V31.7655C55.4278 31.4317 55.2276 31.1305 54.9199 31.0013L42.7897 25.908C42.2436 25.6787 41.6401 26.0798 41.6401 26.6721V29.1827C41.6401 29.5285 41.8548 29.838 42.1788 29.959L50.5294 33.0794C50.5777 33.0975 50.6097 33.1436 50.6097 33.1952V33.1952C50.6097 33.2467 50.5778 33.2928 50.5295 33.3109L42.1781 36.4405C41.8545 36.5617 41.6401 36.871 41.6401 37.2166V39.7181C41.6401 40.3105 42.2436 40.7116 42.7897 40.4823L54.9199 35.389Z" fill="#160101"/>
<defs>
<linearGradient id="paint0_linear_15_11" x1="0" y1="0" x2="46.4106" y2="46.9262" gradientUnits="userSpaceOnUse">
<stop stop-color="#1909D1"/>
<stop offset="1" stop-color="#DC0E0E"/>
</linearGradient>
</defs>
</svg>
